<svg xmlns="http://www.w3.org/2000/svg" viewBox="0 0 1200 630" role="img" aria-label="VPN Diagnostics dashboard preview">
  <defs>
    <linearGradient id="page" x1="0" x2="1" y1="0" y2="1">
      <stop stop-color="#07101d" />
      <stop offset="0.52" stop-color="#111827" />
      <stop offset="1" stop-color="#10202b" />
    </linearGradient>
    <linearGradient id="signal" x1="0" x2="1">
      <stop stop-color="#22d3ee" />
      <stop offset="0.52" stop-color="#34d399" />
      <stop offset="1" stop-color="#fbbf24" />
    </linearGradient>
    <pattern id="grid" width="44" height="44" patternUnits="userSpaceOnUse">
      <path d="M44 0H0v44" fill="none" stroke="#94a3b8" stroke-opacity="0.13" />
    </pattern>
    <filter id="shadow" x="-20%" y="-20%" width="140%" height="140%">
      <feDropShadow dx="0" dy="28" stdDeviation="28" flood-color="#000000" flood-opacity="0.34" />
    </filter>
  </defs>
  <rect width="1200" height="630" fill="url(#page)" />
  <rect width="1200" height="630" fill="url(#grid)" opacity="0.86" />
  <circle cx="170" cy="105" r="260" fill="#22d3ee" opacity="0.16" />
  <circle cx="1010" cy="110" r="230" fill="#fb7185" opacity="0.14" />
  <rect x="90" y="78" width="1020" height="474" rx="34" fill="#0f172a" fill-opacity="0.76" stroke="#94a3b8" stroke-opacity="0.23" filter="url(#shadow)" />
  <rect x="90" y="78" width="1020" height="8" rx="4" fill="url(#signal)" />
  <g transform="translate(142 140)">
    <rect width="144" height="144" rx="36" fill="url(#signal)" />
    <path d="M72 25 112 41v32c0 27-16.5 43-40 51-23.5-8-40-24-40-51V41l40-16Z" fill="#09111f" fill-opacity="0.22" />
    <path d="M43 76h18l7-22 13 48 8-26h14" fill="none" stroke="#ecfeff" stroke-linecap="round" stroke-linejoin="round" stroke-width="9" />
  </g>
  <text x="326" y="186" fill="#f8fafc" font-family="Segoe UI, Arial, sans-serif" font-size="62" font-weight="700">VPN Diagnostics</text>
  <text x="328" y="243" fill="#cbd5e1" font-family="Segoe UI, Arial, sans-serif" font-size="30">Проверка VPN, IP, DNS, WebRTC leaks и скорости</text>
  <g transform="translate(142 344)" font-family="Segoe UI, Arial, sans-serif">
    <rect width="212" height="94" rx="20" fill="#020617" fill-opacity="0.42" stroke="#34d399" stroke-opacity="0.35" />
    <text x="24" y="39" fill="#94a3b8" font-size="18" letter-spacing="2">PUBLIC IP</text>
    <text x="24" y="72" fill="#bbf7d0" font-size="30" font-weight="700">OK</text>
    <rect x="246" width="212" height="94" rx="20" fill="#020617" fill-opacity="0.42" stroke="#22d3ee" stroke-opacity="0.35" />
    <text x="270" y="39" fill="#94a3b8" font-size="18" letter-spacing="2">WEBRTC</text>
    <text x="270" y="72" fill="#a5f3fc" font-size="30" font-weight="700">LEAK TEST</text>
    <rect x="492" width="212" height="94" rx="20" fill="#020617" fill-opacity="0.42" stroke="#fbbf24" stroke-opacity="0.35" />
    <text x="516" y="39" fill="#94a3b8" font-size="18" letter-spacing="2">PING/TCP</text>
    <text x="516" y="72" fill="#fde68a" font-size="30" font-weight="700">TRACE</text>
    <rect x="738" width="212" height="94" rx="20" fill="#020617" fill-opacity="0.42" stroke="#fb7185" stroke-opacity="0.35" />
    <text x="762" y="39" fill="#94a3b8" font-size="18" letter-spacing="2">SPEED</text>
    <text x="762" y="72" fill="#fecdd3" font-size="30" font-weight="700">Mbps</text>
  </g>
</svg>
